<svg id="Layer_1" data-name="Layer 1" xmlns="http://www.w3.org/2000/svg" xmlns:xlink="http://www.w3.org/1999/xlink" viewBox="0 0 1834.56 525.16"><defs><style>.cls-1{fill:url(#linear-gradient);}.cls-2{fill:url(#linear-gradient-2);}.cls-3{fill:url(#linear-gradient-3);}.cls-4{fill:url(#linear-gradient-4);}.cls-5{fill:url(#linear-gradient-5);}.cls-6{fill:url(#linear-gradient-6);}.cls-7{fill:url(#linear-gradient-7);}.cls-8{fill:url(#linear-gradient-8);}.cls-9{fill:url(#linear-gradient-9);}.cls-10{fill:url(#linear-gradient-10);}.cls-11{fill:url(#linear-gradient-11);}.cls-12{fill:url(#linear-gradient-12);}.cls-13{fill:url(#linear-gradient-13);}.cls-14{fill:url(#linear-gradient-14);}.cls-15{fill:url(#linear-gradient-15);}.cls-16{fill:url(#linear-gradient-16);}.cls-17{fill:url(#linear-gradient-17);}.cls-18{fill:url(#linear-gradient-18);}.cls-19{fill:url(#linear-gradient-19);}.cls-20{fill:url(#linear-gradient-20);}.cls-21{fill:url(#linear-gradient-21);}.cls-22{fill:url(#linear-gradient-22);}.cls-23{fill:url(#linear-gradient-23);}.cls-24{fill:url(#linear-gradient-24);}.cls-25{fill:url(#linear-gradient-25);}.cls-26{fill:url(#linear-gradient-26);}.cls-27{fill:url(#linear-gradient-27);}.cls-28{fill:url(#linear-gradient-28);}.cls-29{fill:url(#linear-gradient-29);}.cls-30{fill:url(#linear-gradient-30);}.cls-31{fill:url(#linear-gradient-31);}.cls-32{fill:url(#linear-gradient-32);}.cls-33{fill:url(#linear-gradient-33);}.cls-34{fill:url(#linear-gradient-34);}.cls-35{fill:url(#linear-gradient-35);}.cls-36{fill:url(#linear-gradient-36);}.cls-37{fill:url(#linear-gradient-37);}.cls-38{fill:url(#linear-gradient-38);}.cls-39{fill:url(#linear-gradient-39);}.cls-40{fill:url(#linear-gradient-40);}.cls-41{fill:url(#linear-gradient-41);}.cls-42{fill:url(#linear-gradient-42);}.cls-43{fill:url(#linear-gradient-43);}.cls-44{fill:url(#linear-gradient-44);}.cls-45{fill:url(#linear-gradient-45);}.cls-46{fill:url(#linear-gradient-46);}.cls-47{fill:url(#linear-gradient-47);}.cls-48{fill:url(#linear-gradient-48);}.cls-49{fill:url(#linear-gradient-49);}.cls-50{fill:url(#linear-gradient-50);}</style><linearGradient id="linear-gradient" x1="710.99" y1="-4.12" x2="659.15" y2="260.84" gradientUnits="userSpaceOnUse"><stop offset="0" stop-color="#12cffd"/><stop offset="0.01" stop-color="#1bc7fb"/><stop offset="0.09" stop-color="#45a2f4"/><stop offset="0.17" stop-color="#6a81ee"/><stop offset="0.26" stop-color="#8965e8"/><stop offset="0.35" stop-color="#a24fe4"/><stop offset="0.46" stop-color="#b63ee0"/><stop offset="0.58" stop-color="#c431de"/><stop offset="0.73" stop-color="#cc2adc"/><stop offset="1" stop-color="#ce28dc"/></linearGradient><linearGradient id="linear-gradient-2" x1="758.84" y1="5.24" x2="707" y2="270.2" xlink:href="#linear-gradient"/><linearGradient id="linear-gradient-3" x1="810.44" y1="15.33" x2="758.6" y2="280.29" xlink:href="#linear-gradient"/><linearGradient id="linear-gradient-4" x1="876.95" y1="28.35" x2="825.11" y2="293.31" xlink:href="#linear-gradient"/><linearGradient id="linear-gradient-5" x1="946.03" y1="41.86" x2="894.19" y2="306.82" xlink:href="#linear-gradient"/><linearGradient id="linear-gradient-6" x1="1024.41" y1="57.2" x2="972.57" y2="322.16" xlink:href="#linear-gradient"/><linearGradient id="linear-gradient-7" x1="1095.35" y1="71.07" x2="1043.51" y2="336.03" xlink:href="#linear-gradient"/><linearGradient id="linear-gradient-8" x1="1146.94" y1="81.17" x2="1095.1" y2="346.13" xlink:href="#linear-gradient"/><linearGradient id="linear-gradient-9" x1="1213.68" y1="94.23" x2="1161.84" y2="359.19" xlink:href="#linear-gradient"/><linearGradient id="linear-gradient-10" x1="1280.38" y1="107.28" x2="1228.54" y2="372.24" xlink:href="#linear-gradient"/><linearGradient id="linear-gradient-11" x1="1348.59" y1="120.62" x2="1296.75" y2="385.58" xlink:href="#linear-gradient"/><linearGradient id="linear-gradient-12" x1="1404.01" y1="131.47" x2="1352.17" y2="396.43" xlink:href="#linear-gradient"/><linearGradient id="linear-gradient-13" x1="1475.02" y1="145.36" x2="1423.18" y2="410.32" xlink:href="#linear-gradient"/><linearGradient id="linear-gradient-14" x1="1520.67" y1="154.29" x2="1468.83" y2="419.25" xlink:href="#linear-gradient"/><linearGradient id="linear-gradient-15" x1="1568.69" y1="163.69" x2="1516.85" y2="428.65" xlink:href="#linear-gradient"/><linearGradient id="linear-gradient-16" x1="1629.06" y1="175.5" x2="1577.22" y2="440.46" xlink:href="#linear-gradient"/><linearGradient id="linear-gradient-17" x1="1716.75" y1="192.65" x2="1664.91" y2="457.61" xlink:href="#linear-gradient"/><linearGradient id="linear-gradient-18" x1="1774.62" y1="203.98" x2="1722.78" y2="468.94" xlink:href="#linear-gradient"/><linearGradient id="linear-gradient-19" x1="1843.5" y1="217.45" x2="1791.66" y2="482.41" xlink:href="#linear-gradient"/><linearGradient id="linear-gradient-20" x1="1885.16" y1="225.6" x2="1833.32" y2="490.56" xlink:href="#linear-gradient"/><linearGradient id="linear-gradient-21" x1="715.93" y1="-3.16" x2="664.09" y2="261.8" xlink:href="#linear-gradient"/><linearGradient id="linear-gradient-22" x1="766.44" y1="6.72" x2="714.6" y2="271.68" xlink:href="#linear-gradient"/><linearGradient id="linear-gradient-23" x1="806.68" y1="14.6" x2="754.84" y2="279.56" xlink:href="#linear-gradient"/><linearGradient id="linear-gradient-24" x1="863.87" y1="25.79" x2="812.03" y2="290.75" xlink:href="#linear-gradient"/><linearGradient id="linear-gradient-25" x1="914.46" y1="35.68" x2="862.62" y2="300.64" xlink:href="#linear-gradient"/><linearGradient id="linear-gradient-26" x1="964.4" y1="45.46" x2="912.56" y2="310.42" xlink:href="#linear-gradient"/><linearGradient id="linear-gradient-27" x1="1004.13" y1="53.23" x2="952.29" y2="318.19" xlink:href="#linear-gradient"/><linearGradient id="linear-gradient-28" x1="1067.95" y1="65.71" x2="1016.11" y2="330.67" xlink:href="#linear-gradient"/><linearGradient id="linear-gradient-29" x1="1115.87" y1="75.09" x2="1064.03" y2="340.05" xlink:href="#linear-gradient"/><linearGradient id="linear-gradient-30" x1="1154.01" y1="82.55" x2="1102.17" y2="347.51" xlink:href="#linear-gradient"/><linearGradient id="linear-gradient-31" x1="1191.26" y1="89.84" x2="1139.42" y2="354.8" xlink:href="#linear-gradient"/><linearGradient id="linear-gradient-32" x1="1228.54" y1="97.13" x2="1176.7" y2="362.09" xlink:href="#linear-gradient"/><linearGradient id="linear-gradient-33" x1="1269.42" y1="105.13" x2="1217.58" y2="370.09" xlink:href="#linear-gradient"/><linearGradient id="linear-gradient-34" x1="1317.56" y1="114.55" x2="1265.72" y2="379.51" xlink:href="#linear-gradient"/><linearGradient id="linear-gradient-35" x1="1346.46" y1="120.21" x2="1294.62" y2="385.17" xlink:href="#linear-gradient"/><linearGradient id="linear-gradient-36" x1="1383.83" y1="127.52" x2="1331.99" y2="392.48" xlink:href="#linear-gradient"/><linearGradient id="linear-gradient-37" x1="1446.28" y1="139.74" x2="1394.44" y2="404.7" xlink:href="#linear-gradient"/><linearGradient id="linear-gradient-38" x1="1506.9" y1="151.6" x2="1455.06" y2="416.56" xlink:href="#linear-gradient"/><linearGradient id="linear-gradient-39" x1="1554.82" y1="160.97" x2="1502.98" y2="425.93" xlink:href="#linear-gradient"/><linearGradient id="linear-gradient-40" x1="1592.96" y1="168.43" x2="1541.12" y2="433.39" xlink:href="#linear-gradient"/><linearGradient id="linear-gradient-41" x1="48.81" y1="128.05" x2="377.97" y2="352.38" gradientUnits="userSpaceOnUse"><stop offset="0" stop-color="#12cffd"/><stop offset="1" stop-color="#ce28dc"/></linearGradient><linearGradient id="linear-gradient-42" x1="-17.56" y1="225.44" x2="311.6" y2="449.77" xlink:href="#linear-gradient-41"/><linearGradient id="linear-gradient-43" x1="23.32" y1="165.45" x2="352.48" y2="389.78" xlink:href="#linear-gradient-41"/><linearGradient id="linear-gradient-44" x1="-74.52" y1="309.02" x2="254.63" y2="533.35" xlink:href="#linear-gradient-41"/><linearGradient id="linear-gradient-45" x1="143.05" y1="-10.22" x2="472.21" y2="214.11" xlink:href="#linear-gradient-41"/><linearGradient id="linear-gradient-46" x1="182.83" y1="-68.59" x2="511.99" y2="155.74" xlink:href="#linear-gradient-41"/><linearGradient id="linear-gradient-47" x1="102.01" y1="50" x2="431.16" y2="274.33" xlink:href="#linear-gradient-41"/><linearGradient id="linear-gradient-48" x1="114.82" y1="31.19" x2="443.98" y2="255.52" xlink:href="#linear-gradient-41"/><linearGradient id="linear-gradient-49" x1="169.69" y1="-49.32" x2="498.85" y2="175.01" xlink:href="#linear-gradient-41"/><linearGradient id="linear-gradient-50" x1="55.94" y1="117.6" x2="385.09" y2="341.93" xlink:href="#linear-gradient-41"/></defs><path class="cls-1" d="M674.77,252.72l16.93,5.12a31.37,31.37,0,0,1-5.37,11.9,23.37,23.37,0,0,1-9.11,7.21q-5.44,2.43-13.84,2.43-10.2,0-16.66-3T635.57,266q-4.7-7.46-4.7-19.09,0-15.53,8.26-23.85t23.35-8.34q11.82,0,18.58,4.78t10,14.67L674,238a14.44,14.44,0,0,0-1.88-4.18,11,11,0,0,0-4-3.41,12.19,12.19,0,0,0-15.32,4.09q-2.64,3.91-2.64,12.31,0,10.39,3.16,14.25t8.87,3.85c3.7,0,6.49-1,8.38-3.11S673.91,256.67,674.77,252.72Z" transform="translate(-48.64 -17.63)"/><path class="cls-2" d="M701.85,215.78h19.37v62.53H701.85Z" transform="translate(-48.64 -17.63)"/><path class="cls-3" d="M735.21,215.78h18l23.55,34.6v-34.6H795v62.53H776.8L753.38,244v34.33H735.21Z" transform="translate(-48.64 -17.63)"/><path class="cls-4" d="M807.81,215.78h51.78v13.35H827.17v9.94h30.07v12.75H827.17v12.33h33.36v14.16H807.81Z" transform="translate(-48.64 -17.63)"/><path class="cls-5" d="M870.72,215.78h25.41l9.8,38.05,9.73-38.05h25.4v62.53H925.23V230.62L913,278.31H898.72l-12.17-47.69v47.69H870.72Z" transform="translate(-48.64 -17.63)"/><path class="cls-6" d="M991.83,268H969.89l-3,10.32H947.11l23.51-62.53h21.07l23.5,62.53H995Zm-4-13.52L980.92,232l-6.83,22.48Z" transform="translate(-48.64 -17.63)"/><path class="cls-7" d="M1051.23,215.78h19.37v62.53h-19.37Z" transform="translate(-48.64 -17.63)"/><path class="cls-8" d="M1084.59,215.78h18l23.55,34.6v-34.6h18.21v62.53h-18.21L1102.76,244v34.33h-18.17Z" transform="translate(-48.64 -17.63)"/><path class="cls-9" d="M1157.49,215.78h28.7q8.49,0,13.72,2.3a22.32,22.32,0,0,1,8.63,6.61,27.33,27.33,0,0,1,5,10,46.24,46.24,0,0,1,1.54,12.11q0,10-2.29,15.55a25.78,25.78,0,0,1-6.33,9.26,20.66,20.66,0,0,1-8.7,5,44.78,44.78,0,0,1-11.52,1.71h-28.7Zm19.32,14.16v34.17h4.73q6.06,0,8.62-1.35a9.09,9.09,0,0,0,4-4.69q1.45-3.34,1.45-10.85,0-9.94-3.24-13.61t-10.75-3.67Z" transform="translate(-48.64 -17.63)"/><path class="cls-10" d="M1265.87,215.78h19.28V253a31.15,31.15,0,0,1-1.73,10.46,22.71,22.71,0,0,1-5.41,8.61,21.62,21.62,0,0,1-7.75,5.18,39,39,0,0,1-13.52,2.09,86.55,86.55,0,0,1-10-.64,26,26,0,0,1-9-2.54,22.53,22.53,0,0,1-6.63-5.39,19.9,19.9,0,0,1-4.12-7.2,37.54,37.54,0,0,1-1.79-10.57V215.78h19.28v38.14c0,3.41,1,6.08,2.84,8s4.51,2.88,7.87,2.88A10.57,10.57,0,0,0,1263,262q2.84-2.83,2.84-8Z" transform="translate(-48.64 -17.63)"/><path class="cls-11" d="M1294.58,257.62l18.38-1.15a14.1,14.1,0,0,0,2.43,6.83q3,3.79,8.53,3.79a9.41,9.41,0,0,0,6.38-1.94,5.81,5.81,0,0,0,2.24-4.5,5.74,5.74,0,0,0-2.13-4.35q-2.13-1.92-9.9-3.62-12.71-2.87-18.13-7.6a15.26,15.26,0,0,1-5.46-12.07,16.31,16.31,0,0,1,2.8-9.1,18.46,18.46,0,0,1,8.4-6.74q5.61-2.46,15.38-2.46,12,0,18.27,4.46t7.49,14.18l-18.21,1.07c-.49-2.82-1.5-4.86-3-6.14a9.8,9.8,0,0,0-6.42-1.92,7.72,7.72,0,0,0-5.08,1.43,4.36,4.36,0,0,0-1.7,3.47,3.47,3.47,0,0,0,1.4,2.69c.91.83,3.07,1.59,6.49,2.3q12.66,2.73,18.14,5.53a19,19,0,0,1,8,6.93,17.6,17.6,0,0,1,2.5,9.25,19.86,19.86,0,0,1-3.33,11.1,20.79,20.79,0,0,1-9.3,7.69q-6,2.63-15,2.63-16,0-22.1-6.14A24.26,24.26,0,0,1,1294.58,257.62Z" transform="translate(-48.64 -17.63)"/><path class="cls-12" d="M1356.64,215.78h58.73v15.44h-19.7v47.09h-19.32V231.22h-19.71Z" transform="translate(-48.64 -17.63)"/><path class="cls-13" d="M1424.37,278.31V215.78h32.21q9,0,13.69,1.54a14.59,14.59,0,0,1,7.64,5.69,17.65,17.65,0,0,1-5.43,25.23,23.13,23.13,0,0,1-6.78,2.47,19.21,19.21,0,0,1,5,2.31,19.44,19.44,0,0,1,3.09,3.29,24.15,24.15,0,0,1,2.7,3.88l9.36,18.12h-21.83l-10.33-19.11c-1.31-2.47-2.47-4.08-3.5-4.82a8.14,8.14,0,0,0-4.73-1.45h-1.71v25.38Zm19.41-37.19h8.15a29.25,29.25,0,0,0,5.12-.86,5.08,5.08,0,0,0,3.13-2,6.32,6.32,0,0,0-.7-8.27q-1.92-1.62-7.21-1.62h-8.49Z" transform="translate(-48.64 -17.63)"/><path class="cls-14" d="M1492.84,215.78h19.36v62.53h-19.36Z" transform="translate(-48.64 -17.63)"/><path class="cls-15" d="M1526,215.78h51.78v13.35h-32.41v9.94h30.07v12.75h-30.07v12.33h33.35v14.16H1526Z" transform="translate(-48.64 -17.63)"/><path class="cls-16" d="M1585.78,257.62l18.38-1.15a14.1,14.1,0,0,0,2.43,6.83,10.24,10.24,0,0,0,8.54,3.79,9.4,9.4,0,0,0,6.37-1.94,5.81,5.81,0,0,0,2.24-4.5,5.74,5.74,0,0,0-2.13-4.35q-2.13-1.92-9.9-3.62-12.7-2.87-18.12-7.6a15.26,15.26,0,0,1-5.46-12.07,16.38,16.38,0,0,1,2.79-9.1,18.46,18.46,0,0,1,8.4-6.74q5.61-2.46,15.38-2.46,12,0,18.27,4.46t7.49,14.18l-18.21,1.07c-.48-2.82-1.5-4.86-3-6.14a9.8,9.8,0,0,0-6.42-1.92,7.72,7.72,0,0,0-5.08,1.43,4.39,4.39,0,0,0-1.7,3.47,3.48,3.48,0,0,0,1.41,2.69c.91.83,3.07,1.59,6.48,2.3q12.66,2.73,18.15,5.53a19.12,19.12,0,0,1,8,6.93,17.59,17.59,0,0,1,2.49,9.25,19.86,19.86,0,0,1-3.33,11.1,20.74,20.74,0,0,1-9.3,7.69q-6,2.63-15.05,2.63-16,0-22.1-6.14A24.26,24.26,0,0,1,1585.78,257.62Z" transform="translate(-48.64 -17.63)"/><path class="cls-17" d="M1681.37,215.78h19.32v47.13h30.16v15.4h-49.48Z" transform="translate(-48.64 -17.63)"/><path class="cls-18" d="M1739.89,215.78h28.71q8.48,0,13.71,2.3a22.43,22.43,0,0,1,8.64,6.61,27.47,27.47,0,0,1,4.94,10,46.24,46.24,0,0,1,1.54,12.11q0,10-2.28,15.55a25.68,25.68,0,0,1-6.34,9.26,20.66,20.66,0,0,1-8.7,5,44.64,44.64,0,0,1-11.51,1.71h-28.71Zm19.32,14.16v34.17H1764c4,0,6.91-.45,8.61-1.35a9,9,0,0,0,4-4.69q1.46-3.34,1.45-10.85,0-9.94-3.24-13.61T1764,229.94Z" transform="translate(-48.64 -17.63)"/><path class="cls-19" d="M1842.27,268h-21.93l-3,10.32h-19.73l23.5-62.53h21.08l23.49,62.53H1845.4Zm-4-13.52-6.9-22.48-6.83,22.48Z" transform="translate(-48.64 -17.63)"/><path class="cls-20" d="M1876,279.36a7.3,7.3,0,1,1,7.16-7.34A7,7,0,0,1,1876,279.36Z" transform="translate(-48.64 -17.63)"/><path class="cls-21" d="M641.25,320.8v24.57h23.84v5.5H641.25v29.62h-6V315.25H667v5.55Z" transform="translate(-48.64 -17.63)"/><path class="cls-22" d="M697.71,381.58a23.87,23.87,0,0,1-9.3-1.72,19.93,19.93,0,0,1-7-4.9,21.48,21.48,0,0,1-4.46-7.57,29.42,29.42,0,0,1-1.55-9.78A31,31,0,0,1,677,347.19a21.82,21.82,0,0,1,4.67-7.8,20,20,0,0,1,7.3-4.9,25.9,25.9,0,0,1,9.55-1.68,23.91,23.91,0,0,1,9.1,1.66,18.63,18.63,0,0,1,6.87,4.8,21.49,21.49,0,0,1,4.33,7.65,32.28,32.28,0,0,1,1.5,10.23,30.08,30.08,0,0,1-1.57,9.94,22.6,22.6,0,0,1-4.48,7.72,19.93,19.93,0,0,1-7.1,5A24.12,24.12,0,0,1,697.71,381.58Zm.46-43.72a17.5,17.5,0,0,0-6.92,1.32A14.55,14.55,0,0,0,686,343a17.51,17.51,0,0,0-3.39,6.19,27,27,0,0,0-1.18,8.31,24.5,24.5,0,0,0,1.18,7.87,17.85,17.85,0,0,0,3.35,6,14.49,14.49,0,0,0,5.25,3.85,18.77,18.77,0,0,0,13.83,0,13.62,13.62,0,0,0,5.1-3.77,16.72,16.72,0,0,0,3.16-6.08,28.78,28.78,0,0,0,1.07-8.19q0-9.42-4.18-14.4C707.34,339.52,703.36,337.86,698.17,337.86Z" transform="translate(-48.64 -17.63)"/><path class="cls-23" d="M755.18,339.86a8.73,8.73,0,0,0-5.28-1.5,9,9,0,0,0-4.09.89,10.23,10.23,0,0,0-3.12,2.39,14.45,14.45,0,0,0-2.28,3.48,24.4,24.4,0,0,0-1.5,4.12,30.19,30.19,0,0,0-.82,4.32,37.91,37.91,0,0,0-.25,4.14v22.79h-5.77V333.9h5.77v10H738a20.23,20.23,0,0,1,2.07-4.58,14.22,14.22,0,0,1,2.88-3.41,12.19,12.19,0,0,1,3.58-2.11,11.3,11.3,0,0,1,4.07-.73,15.86,15.86,0,0,1,2.52.18,9.12,9.12,0,0,1,2,.55Z" transform="translate(-48.64 -17.63)"/><path class="cls-24" d="M802.68,389q-2.73,6.82-6.28,10.12a12.18,12.18,0,0,1-8.6,3.3,13.27,13.27,0,0,1-4.23-.59v-5.46a12.32,12.32,0,0,0,2,.54,12.06,12.06,0,0,0,2.07.18,7.51,7.51,0,0,0,5-1.79,14.37,14.37,0,0,0,3.66-5.44l4.05-9.55L782.43,333.9h6.46l13.33,36.9a17.24,17.24,0,0,1,.53,1.66c.16.62.32,1.24.47,1.84h.23c.15-.51.3-1,.43-1.56a17.7,17.7,0,0,1,.57-1.76L818.6,333.9h6.14Z" transform="translate(-48.64 -17.63)"/><path class="cls-25" d="M851.41,381.58a23.92,23.92,0,0,1-9.31-1.72,20,20,0,0,1-7-4.9,21.48,21.48,0,0,1-4.46-7.57,29.42,29.42,0,0,1-1.54-9.78,30.71,30.71,0,0,1,1.64-10.42,21.8,21.8,0,0,1,4.66-7.8,20,20,0,0,1,7.3-4.9,26,26,0,0,1,9.56-1.68,24,24,0,0,1,9.1,1.66,18.79,18.79,0,0,1,6.87,4.8,21.32,21.32,0,0,1,4.32,7.65,32.28,32.28,0,0,1,1.5,10.23,29.82,29.82,0,0,1-1.57,9.94,22.6,22.6,0,0,1-4.48,7.72,19.84,19.84,0,0,1-7.1,5A24.1,24.1,0,0,1,851.41,381.58Zm.45-43.72a17.41,17.41,0,0,0-6.91,1.32,14.47,14.47,0,0,0-5.3,3.84,17.21,17.21,0,0,0-3.39,6.19,27,27,0,0,0-1.19,8.31,24.5,24.5,0,0,0,1.19,7.87,17.66,17.66,0,0,0,3.34,6,14.44,14.44,0,0,0,5.26,3.85,18.77,18.77,0,0,0,13.83,0,13.59,13.59,0,0,0,5.09-3.77,16.57,16.57,0,0,0,3.16-6.08,28.43,28.43,0,0,0,1.07-8.19q0-9.42-4.18-14.4T851.86,337.86Z" transform="translate(-48.64 -17.63)"/><path class="cls-26" d="M916.24,380.49v-7.91h-.18q-4.74,9-14.7,9-16.61,0-16.6-20.29V333.9h5.82v26.3q0,8.37,3,12.38t9.12,4a12.89,12.89,0,0,0,5.49-1.16,12.51,12.51,0,0,0,4.27-3.28,15.34,15.34,0,0,0,2.8-5.07,20.23,20.23,0,0,0,1-6.55V333.9h5.83v46.59Z" transform="translate(-48.64 -17.63)"/><path class="cls-27" d="M960.19,339.86a8.71,8.71,0,0,0-5.28-1.5,9.05,9.05,0,0,0-4.09.89,10.48,10.48,0,0,0-3.12,2.39,14.13,14.13,0,0,0-2.27,3.48,22.78,22.78,0,0,0-1.5,4.12,28.87,28.87,0,0,0-.82,4.32,35.56,35.56,0,0,0-.25,4.14v22.79h-5.78V333.9h5.78v10H943a20.68,20.68,0,0,1,2.07-4.58,14.25,14.25,0,0,1,2.89-3.41,12,12,0,0,1,3.57-2.11,11.37,11.37,0,0,1,4.07-.73,16.08,16.08,0,0,1,2.53.18,9.17,9.17,0,0,1,2,.55Z" transform="translate(-48.64 -17.63)"/><path class="cls-28" d="M997,358.24a25.64,25.64,0,0,0,1.13,7.69,16.39,16.39,0,0,0,3.14,5.78,13.51,13.51,0,0,0,5,3.62,16.84,16.84,0,0,0,6.62,1.25,23.64,23.64,0,0,0,14.88-5.51v5.74a27.17,27.17,0,0,1-16.2,4.77A21.37,21.37,0,0,1,1003,380a17.72,17.72,0,0,1-6.51-4.76,21.73,21.73,0,0,1-4.14-7.66,34.11,34.11,0,0,1-1.46-10.38,28.39,28.39,0,0,1,1.6-9.69,23.91,23.91,0,0,1,4.41-7.71,20.35,20.35,0,0,1,6.69-5.1,19.34,19.34,0,0,1,8.46-1.84,19,19,0,0,1,8,1.57,15.61,15.61,0,0,1,5.8,4.48,20.36,20.36,0,0,1,3.58,7.1,33.55,33.55,0,0,1,1.22,9.37v2.91Zm27.66-5.09q-.13-7.29-3.46-11.29a11.34,11.34,0,0,0-9.24-4,14.12,14.12,0,0,0-5.48,1.05,12.89,12.89,0,0,0-4.43,3,16.33,16.33,0,0,0-3.17,4.83,24.11,24.11,0,0,0-1.75,6.39Z" transform="translate(-48.64 -17.63)"/><path class="cls-29" d="M1073.48,380.49V353.65q0-15.79-11.46-15.79a13.07,13.07,0,0,0-5.64,1.21,13.56,13.56,0,0,0-4.49,3.34,15.69,15.69,0,0,0-3,5.07,18.29,18.29,0,0,0-1.07,6.35v26.66H1042V333.9h5.83V342h.18q5.19-9.19,15.61-9.19,7.63,0,11.64,5t4,14.33v28.39Z" transform="translate(-48.64 -17.63)"/><path class="cls-30" d="M1113.34,380a14.46,14.46,0,0,1-6.55,1.5q-11.3,0-11.29-13V339h-8.19v-5.1h8.19V322.16l5.83-1.91V333.9h12V339h-12v28.53q0,4.73,1.54,6.82c1,1.4,2.78,2.09,5.24,2.09a9.42,9.42,0,0,0,5.23-1.63Z" transform="translate(-48.64 -17.63)"/><path class="cls-31" d="M1125,358.24a26,26,0,0,0,1.13,7.69,16.39,16.39,0,0,0,3.14,5.78,13.46,13.46,0,0,0,5,3.62,16.77,16.77,0,0,0,6.62,1.25,23.63,23.63,0,0,0,14.87-5.51v5.74a27.16,27.16,0,0,1-16.19,4.77A21.42,21.42,0,0,1,1131,380a17.72,17.72,0,0,1-6.51-4.76,21.73,21.73,0,0,1-4.14-7.66,34.12,34.12,0,0,1-1.45-10.38,28.39,28.39,0,0,1,1.59-9.69,23.91,23.91,0,0,1,4.41-7.71,20.35,20.35,0,0,1,6.69-5.1,19.4,19.4,0,0,1,8.46-1.84,19,19,0,0,1,8,1.57,15.73,15.73,0,0,1,5.81,4.48,20.35,20.35,0,0,1,3.57,7.1,33.17,33.17,0,0,1,1.23,9.37v2.91Zm27.66-5.09q-.14-7.29-3.46-11.29a11.32,11.32,0,0,0-9.23-4,14.17,14.17,0,0,0-5.49,1.05,12.89,12.89,0,0,0-4.43,3,16.33,16.33,0,0,0-3.17,4.83,24.49,24.49,0,0,0-1.75,6.39Z" transform="translate(-48.64 -17.63)"/><path class="cls-32" d="M1193.19,339.86a8.73,8.73,0,0,0-5.28-1.5,9,9,0,0,0-4.09.89,10.23,10.23,0,0,0-3.12,2.39,14.16,14.16,0,0,0-2.28,3.48,24.4,24.4,0,0,0-1.5,4.12,30.19,30.19,0,0,0-.82,4.32,37.91,37.91,0,0,0-.25,4.14v22.79h-5.77V333.9h5.77v10h.19a20.23,20.23,0,0,1,2.07-4.58,14.22,14.22,0,0,1,2.88-3.41,12.19,12.19,0,0,1,3.58-2.11,11.3,11.3,0,0,1,4.07-.73,15.86,15.86,0,0,1,2.52.18,9.12,9.12,0,0,1,2,.55Z" transform="translate(-48.64 -17.63)"/><path class="cls-33" d="M1232.91,380.49V353.65q0-15.79-11.47-15.79a13.13,13.13,0,0,0-5.64,1.21,13.52,13.52,0,0,0-4.48,3.34,15.72,15.72,0,0,0-3,5.07,18.52,18.52,0,0,0-1.07,6.35v26.66h-5.82V333.9h5.82V342h.18q5.19-9.19,15.61-9.19,7.65,0,11.65,5t4,14.33v28.39Z" transform="translate(-48.64 -17.63)"/><path class="cls-34" d="M1279.59,380.49v-8.28h-.18a17.19,17.19,0,0,1-6.21,6.92,16.45,16.45,0,0,1-8.9,2.45,18.07,18.07,0,0,1-6.07-.95,13,13,0,0,1-4.6-2.71,11.87,11.87,0,0,1-2.91-4.21,13.94,13.94,0,0,1-1-5.41q0-6.33,3.91-10.08t11.83-4.89l14.15-2.05q0-13.42-10.42-13.42-8.14,0-15.11,6v-6.37a19.26,19.26,0,0,1,3.3-1.89,30.92,30.92,0,0,1,3.89-1.45,32.57,32.57,0,0,1,4.21-1,26.72,26.72,0,0,1,4.21-.34q7.78,0,11.76,4.37t4,13v30.3Zm-12-22.61a35.05,35.05,0,0,0-5.37,1.14,11,11,0,0,0-3.69,1.84,6.9,6.9,0,0,0-2.14,2.87,11.46,11.46,0,0,0-.68,4.21,8.91,8.91,0,0,0,.66,3.45,7.91,7.91,0,0,0,1.91,2.76,8.7,8.7,0,0,0,3,1.79,12,12,0,0,0,4.07.64,13.67,13.67,0,0,0,5.69-1.18,13.49,13.49,0,0,0,4.48-3.28,15.17,15.17,0,0,0,3-5,18.33,18.33,0,0,0,1.07-6.33V356.2Z" transform="translate(-48.64 -17.63)"/><path class="cls-35" d="M1302.29,322.12a4.09,4.09,0,0,1-2.91-1.18,4,4,0,0,1-1.23-3,3.85,3.85,0,0,1,1.23-2.93,4.07,4.07,0,0,1,2.91-1.16,4.72,4.72,0,0,1,1.64.29,4,4,0,0,1,1.34.85,4.12,4.12,0,0,1,.91,1.29,3.94,3.94,0,0,1,.34,1.66,4.27,4.27,0,0,1-.31,1.64,4,4,0,0,1-.91,1.34,4.46,4.46,0,0,1-1.35.89A4.24,4.24,0,0,1,1302.29,322.12Zm-2.86,58.37V333.9h5.82v46.59Z" transform="translate(-48.64 -17.63)"/><path class="cls-36" d="M1351.7,380.49V353.65q0-15.79-11.46-15.79a13.07,13.07,0,0,0-5.64,1.21,13.56,13.56,0,0,0-4.49,3.34,15.69,15.69,0,0,0-2.95,5.07,18.29,18.29,0,0,0-1.07,6.35v26.66h-5.83V333.9h5.83V342h.18q5.19-9.19,15.61-9.19,7.63,0,11.64,5t4,14.33v28.39Z" transform="translate(-48.64 -17.63)"/><path class="cls-37" d="M1430.1,380.49V353.1a33.65,33.65,0,0,0-.64-7.07,12.45,12.45,0,0,0-2-4.71,7.68,7.68,0,0,0-3.41-2.64,13.34,13.34,0,0,0-4.94-.82,10.05,10.05,0,0,0-4.82,1.21,12.6,12.6,0,0,0-4,3.32,16.08,16.08,0,0,0-2.69,5,19.08,19.08,0,0,0-1,6.19v26.93h-5.82v-28q0-14.65-11.24-14.65a10.3,10.3,0,0,0-4.82,1.16,12,12,0,0,0-3.89,3.25,15.63,15.63,0,0,0-2.59,5,21.11,21.11,0,0,0-.94,6.49v26.7h-5.82V333.9h5.82v7.56h.19q4.9-8.65,14.33-8.65a14.19,14.19,0,0,1,4.64.75,13.59,13.59,0,0,1,3.91,2.09,13.81,13.81,0,0,1,3,3.21,14.61,14.61,0,0,1,1.89,4.1,18.77,18.77,0,0,1,6.39-7.56,15.87,15.87,0,0,1,8.9-2.59q15.33,0,15.33,18.93v28.75Z" transform="translate(-48.64 -17.63)"/><path class="cls-38" d="M1452.71,358.24a26,26,0,0,0,1.14,7.69,16.08,16.08,0,0,0,3.14,5.78,13.35,13.35,0,0,0,5,3.62,16.77,16.77,0,0,0,6.62,1.25,23.68,23.68,0,0,0,14.88-5.51v5.74a27.17,27.17,0,0,1-16.2,4.77,21.42,21.42,0,0,1-8.51-1.63,17.72,17.72,0,0,1-6.51-4.76,21.73,21.73,0,0,1-4.14-7.66,34.12,34.12,0,0,1-1.45-10.38,28.63,28.63,0,0,1,1.59-9.69,23.91,23.91,0,0,1,4.41-7.71,20.35,20.35,0,0,1,6.69-5.1,19.4,19.4,0,0,1,8.46-1.84,19.05,19.05,0,0,1,8,1.57,15.78,15.78,0,0,1,5.8,4.48,20.35,20.35,0,0,1,3.57,7.1,33.17,33.17,0,0,1,1.23,9.37v2.91Zm27.66-5.09q-.13-7.29-3.46-11.29a11.32,11.32,0,0,0-9.23-4,14.08,14.08,0,0,0-5.48,1.05,12.84,12.84,0,0,0-4.44,3,16.31,16.31,0,0,0-3.16,4.83,23.73,23.73,0,0,0-1.75,6.39Z" transform="translate(-48.64 -17.63)"/><path class="cls-39" d="M1529.24,380.49V353.65q0-15.79-11.47-15.79a13.13,13.13,0,0,0-5.64,1.21,13.42,13.42,0,0,0-4.48,3.34,15.72,15.72,0,0,0-3,5.07,18.52,18.52,0,0,0-1.07,6.35v26.66h-5.82V333.9h5.82V342h.18q5.19-9.19,15.61-9.19,7.63,0,11.65,5t4,14.33v28.39Z" transform="translate(-48.64 -17.63)"/><path class="cls-40" d="M1569.09,380a14.43,14.43,0,0,1-6.55,1.5q-11.28,0-11.28-13V339h-8.19v-5.1h8.19V322.16l5.82-1.91V333.9h12V339h-12v28.53q0,4.73,1.55,6.82c1,1.4,2.77,2.09,5.23,2.09a9.42,9.42,0,0,0,5.23-1.63Z" transform="translate(-48.64 -17.63)"/><path class="cls-41" d="M86.84,257c-31.22-31.77-40.69-65.92-27.21-105,12.19-35.29,37.86-55,73.78-65C176.58,75,218.6,58.83,261.55,45.89c39.5-11.9,77.64-28.73,120.5-28.25C448,18.38,508.65,78.72,508,144.86c-.59,59.33-27.12,101.6-81.58,125.77-7.8,3.46-12.53,7.94-12.14,17.29.56,13.57,0,27.17.32,40.75.1,3.61.89,8.28,3.23,10.55,6.11,5.94,38.92,1.24,44.18-6,11.1-15.28,22.05-30.68,32.68-46.28a18.06,18.06,0,0,0,3.17-10.74c-1.34-16,6.76-20.27,21.14-19.47,15,.84,30.07.54,45.11.46,10.78-.07,14,5.26,13.91,15.55-.42,85.38-.68,170.77-.28,256.15,0,10.26-2.23,14.14-12.51,13.89-17.94-.43-35.92.28-53.84-.43-4.37-.17-10.56-2.87-12.52-6.33-7-12.31-12.31-25.53-18.64-38.22-1.92-3.85-5.9-6.75-7.47-10.68-8.34-20.84-24.64-24.09-44.67-22.72-11.08.75-14.27,5-14,15.11.48,16.48,0,33,.53,49.48.3,9.7-2.84,13.8-13.28,13.76-89.77-.35-179.54.13-269.3-.93-8.55-.1-18.28-7.64-25.25-14.12a680.5,680.5,0,0,1-47.59-48.94c-5.31-6-10.12-15-10.21-22.72-.72-60.63.12-121.27-.37-181.9-.12-14.93,6.48-18.57,19.47-17.18C73.32,257.51,78.64,257,86.84,257Zm145.43,23.28v-.17q-70.56,0-141.13,0c-18.53,0-19.42.67-19.3,20,.3,48.94.52,97.89,1.79,146.81.19,7.26,4.43,15.69,9.38,21.3a456.69,456.69,0,0,0,41,41.15c5.92,5.19,15,9.47,22.67,9.54,76.13.67,152.28.17,228.42.57,11.86.06,16.26-3.61,16.17-15.7q-.8-104-.44-208c.05-12.06-4.08-15.83-16-15.69C327.33,280.64,279.8,280.32,232.27,280.32Zm139.21-23.66c62.07,3.87,110.77-49.28,112.94-101.81,2.69-64.92-48.45-108.55-96-113-81.33-7.64-119.37,54.52-121.35,102.05C264.53,204.94,309.55,254.27,371.48,256.66Zm-218.16-.35c34.72,8.46,74.72-40.29,74.77-70,.08-50.26-37.51-76.78-73-76.26-49,.72-79.35,29.36-81.08,77.59C72.88,218.54,117.58,256.17,153.32,256.31ZM551.4,398.55c0-34.42-.16-68.84.1-103.26.07-9.77-2.07-15.31-13.7-15.11-10.58.18-13.18,4.66-13.14,14.12q.45,105.43.29,210.88c0,10,3.38,13.37,13.53,13.46,10.75.11,13.08-4.47,13-13.92C551.17,469.33,551.36,433.94,551.4,398.55Zm-299.19-194c-9.36,17-18.42,33.37-28,50.79H292ZM262.13,72,200.26,92l41.47,43.67C248,116.08,254.35,96.28,262.13,72Z" transform="translate(-48.64 -17.63)"/><path class="cls-42" d="M273.33,474.78c-28.61,0-57.23-.42-85.84.2-12.1.27-18-3.41-17.87-16.24.29-24.7,0-49.41-.36-74.11-.12-8.39,4.2-11.06,11.67-11.06q91.66,0,183.32-.22c9.8,0,12.7,5.37,12.75,13.69.13,25.19-.2,50.39.33,75.57.24,11.71-7.09,12.07-15.24,12.08q-44.38.06-88.76,0Zm26.19-77.61v-.06h-16c-40.61,0-40.32-.05-37.26,41.7.7,9.48,4.34,12.83,13.31,12.75,17.46-.17,34.92.11,52.38.21,40.95.22,40.95.22,40.84-40.63,0-1,.07-1.94.14-2.9.61-8.1-3.17-11.33-11.2-11.16C327.66,397.39,313.59,397.17,299.52,397.17Z" transform="translate(-48.64 -17.63)"/><path class="cls-43" d="M245.62,303.62H354.7c3.39,0,7.74-1.24,10,.39,4.71,3.42,8.32,8.36,12.38,12.68-4.35,3.38-8.64,9.57-13.07,9.68-34.4.81-68.83.46-103.25.45-39.76,0-79.52.47-119.26-.47-8.66-.2-24.1,7.52-24.46-10.74s15-11.34,23.89-11.55c34.88-.83,69.8-.34,104.71-.34Z" transform="translate(-48.64 -17.63)"/><path class="cls-44" d="M132.42,429.43c4.4,6.15,11.38,11.85,12.55,18.57,1.53,8.75-5.1,15.39-14.76,15.69-10.42.32-19.24-4.82-17.77-15.63.9-6.67,8.6-12.41,13.25-18.57Z" transform="translate(-48.64 -17.63)"/><path class="cls-45" d="M437.63,149c-3.43,13.68-3.27,30.23-11.26,40.28-8.82,11.09-24.59,21.6-38.27,23-43.77,4.37-76.57-25.23-75.74-63.91.76-35.06,29-63.27,63.7-63.66C411.39,84.33,435.07,110,437.63,149Zm-23,.79c0-22.92-17-39.49-40.74-39.72-20-.19-37.09,17.61-37.07,38.67,0,21.39,18.88,41.08,38.84,40.56C396,188.82,414.6,170,414.62,149.83Z" transform="translate(-48.64 -17.63)"/><path class="cls-46" d="M391.56,59.28c-.06,15.06-7,19.85-16.73,19.59-10-.27-16.26-6.17-15.85-16.81.43-11.41,8.78-14,18.08-14.4C387.75,47.15,391.41,53.67,391.56,59.28Z" transform="translate(-48.64 -17.63)"/><path class="cls-47" d="M393.91,231.12c-3,13.7-7.44,20-18.42,19.61-10-.39-16.57-5.14-16.46-15.74.12-10.79,7.71-16.37,17-15.08C382.38,220.8,388,227.19,393.91,231.12Z" transform="translate(-48.64 -17.63)"/><path class="cls-48" d="M289.28,163.49c-10.87,1-14.08-4.86-14.81-14.69-.89-12,6.69-16.55,15.52-15,5.73,1,13.69,8.34,14.52,13.77C305.84,156.24,301,164.65,289.28,163.49Z" transform="translate(-48.64 -17.63)"/><path class="cls-49" d="M462.58,163.6c-11.62,2.48-14.56-5.75-14.69-14.13-.14-9,4.33-19.14,14.43-17.09,6.26,1.27,13.85,10.39,15.3,17.17C479.31,157.47,473.7,165.3,462.58,163.6Z" transform="translate(-48.64 -17.63)"/><path class="cls-50" d="M152.06,227.82c-25.81,4.06-47.07-19.88-46.36-46.51.61-22.67,21.39-44.93,45.76-44.48,28.9.52,48.95,21,47.8,49.57C198.25,211.26,179.39,227.81,152.06,227.82Zm-.23-23.8c12.72.08,20.44-7.86,20.23-20.84-.19-12.3-8.23-20.68-19.59-20.42-12.48.29-20.18,7.79-20.32,19.79C132,196.14,139.13,203.93,151.83,204Z" transform="translate(-48.64 -17.63)"/></svg>