<?xml version="1.0" encoding="utf-8"?>
<!-- Generator: Adobe Illustrator 24.1.3, SVG Export Plug-In . SVG Version: 6.00 Build 0)  -->
<svg version="1.1" id="Layer_1" xmlns="http://www.w3.org/2000/svg" xmlns:xlink="http://www.w3.org/1999/xlink" x="0px" y="0px"
	 viewBox="0 0 100 100" style="enable-background:new 0 0 100 100;" xml:space="preserve">
<g>
	<path d="M7.52,45.94c-5.86-5.96-7.64-12.38-5.11-19.71C4.7,19.6,9.52,15.9,16.26,14.02c8.11-2.25,15.99-5.29,24.06-7.72
		C47.73,4.07,54.9,0.91,62.94,1c12.38,0.14,23.77,11.47,23.65,23.89C86.48,36.03,81.5,43.96,71.27,48.5
		c-1.46,0.65-2.35,1.49-2.28,3.25c0.11,2.55,0,5.1,0.06,7.65c0.02,0.68,0.17,1.55,0.61,1.98c1.15,1.12,7.31,0.23,8.29-1.13
		c2.08-2.87,4.14-5.76,6.14-8.69c0.41-0.59,0.62-1.3,0.6-2.02c-0.25-3,1.27-3.81,3.97-3.66c2.82,0.16,5.65,0.1,8.47,0.09
		c2.02-0.01,2.63,0.99,2.61,2.92c-0.08,16.03-0.13,32.06-0.05,48.09c0,1.93-0.42,2.65-2.35,2.61c-3.37-0.08-6.74,0.05-10.11-0.08
		c-0.82-0.03-1.98-0.54-2.35-1.19c-1.31-2.31-2.31-4.79-3.5-7.18c-0.36-0.72-1.11-1.27-1.4-2.01c-1.57-3.91-4.63-4.52-8.39-4.27
		c-2.08,0.14-2.68,0.94-2.63,2.84c0.09,3.09,0,6.2,0.1,9.29c0.06,1.82-0.53,2.59-2.49,2.58C49.71,99.52,32.86,99.61,16,99.41
		c-1.61-0.02-3.43-1.43-4.74-2.65c-3.13-2.91-6.11-5.98-8.93-9.19c-1-1.13-1.9-2.82-1.92-4.27C0.28,71.93,0.43,60.54,0.34,49.16
		c-0.02-2.8,1.22-3.49,3.66-3.23C4.98,46.04,5.98,45.94,7.52,45.94z M34.82,50.31v-0.03c-8.83,0-17.66,0-26.5,0
		c-3.48,0-3.65,0.13-3.62,3.75c0.06,9.19,0.1,18.38,0.34,27.56c0.04,1.36,0.83,2.95,1.76,4c2.4,2.74,4.97,5.32,7.7,7.73
		c1.11,0.97,2.82,1.78,4.26,1.79c14.29,0.13,28.59,0.03,42.89,0.11c2.23,0.01,3.05-0.68,3.04-2.95c-0.1-13.02-0.13-26.03-0.08-39.05
		c0.01-2.26-0.77-2.97-3-2.95C52.67,50.38,43.74,50.32,34.82,50.31L34.82,50.31z M60.96,45.87c11.65,0.73,20.8-9.25,21.2-19.11
		c0.51-12.19-9.1-20.38-18.02-21.22C48.87,4.11,41.73,15.78,41.35,24.7C40.88,36.17,49.33,45.43,60.96,45.87L60.96,45.87z M20,45.8
		c6.52,1.59,14.03-7.56,14.04-13.14c0.02-9.44-7.04-14.42-13.71-14.32c-9.2,0.14-14.9,5.51-15.22,14.57
		C4.9,38.72,13.29,45.79,20,45.8L20,45.8z M94.74,72.52c0-6.46-0.03-12.92,0.02-19.39c0.01-1.83-0.39-2.87-2.57-2.84
		c-1.99,0.03-2.47,0.87-2.47,2.65c0.06,13.2,0.07,26.39,0.05,39.59c0,1.88,0.63,2.51,2.54,2.53c2.02,0.02,2.46-0.84,2.44-2.61
		C94.69,85.81,94.73,79.16,94.74,72.52z M38.57,36.09c-1.76,3.19-3.46,6.27-5.26,9.54h12.73L38.57,36.09z M40.43,11.21l-11.62,3.75
		l7.79,8.2C37.77,19.48,38.97,15.77,40.43,11.21z"/>
	<path d="M42.53,86.83c-5.37,0-10.74-0.08-16.12,0.04c-2.27,0.05-3.38-0.64-3.36-3.05c0.05-4.64,0-9.28-0.07-13.91
		c-0.02-1.58,0.79-2.08,2.19-2.08c11.47,0,22.95-0.01,34.42-0.04c1.84,0,2.38,1.01,2.39,2.57c0.02,4.73-0.04,9.46,0.06,14.19
		c0.05,2.2-1.33,2.27-2.86,2.27c-5.55,0.01-11.11,0.01-16.66,0V86.83z M47.45,72.26v-0.01h-3c-7.62,0-7.57-0.01-7,7.83
		c0.13,1.78,0.81,2.41,2.5,2.39c3.28-0.03,6.56,0.02,9.83,0.04c7.69,0.04,7.69,0.04,7.67-7.63c0-0.19,0.01-0.36,0.03-0.54
		c0.11-1.52-0.6-2.13-2.1-2.1C52.73,72.3,50.09,72.26,47.45,72.26L47.45,72.26z"/>
	<path d="M37.33,54.69h20.48c0.64,0,1.45-0.23,1.88,0.07c0.88,0.64,1.56,1.57,2.32,2.38c-0.82,0.63-1.62,1.8-2.45,1.82
		c-6.46,0.15-12.92,0.09-19.38,0.08c-7.46,0-14.93,0.09-22.39-0.09c-1.63-0.04-4.52,1.41-4.59-2.02s2.82-2.13,4.49-2.17
		c6.55-0.16,13.1-0.06,19.66-0.06L37.33,54.69z"/>
	<path d="M16.07,78.31c0.83,1.15,2.14,2.22,2.36,3.49c0.29,1.64-0.96,2.89-2.77,2.95c-1.96,0.06-3.61-0.9-3.34-2.93
		c0.17-1.25,1.61-2.33,2.49-3.49L16.07,78.31z"/>
	<path d="M73.38,25.66c-0.64,2.57-0.61,5.68-2.11,7.56c-1.66,2.08-4.62,4.06-7.19,4.32c-8.22,0.82-14.38-4.74-14.22-12
		C50,18.96,55.3,13.67,61.82,13.59C68.45,13.52,72.9,18.34,73.38,25.66z M69.06,25.81c0-4.3-3.19-7.41-7.65-7.46
		c-3.75-0.04-6.96,3.31-6.96,7.26c0,4.02,3.54,7.71,7.29,7.61C65.56,33.14,69.05,29.61,69.06,25.81L69.06,25.81z"/>
	<path d="M64.73,8.82c-0.01,2.83-1.31,3.73-3.14,3.68c-1.88-0.05-3.05-1.16-2.98-3.16c0.08-2.14,1.65-2.63,3.39-2.7
		C64.01,6.54,64.7,7.77,64.73,8.82z"/>
	<path d="M65.17,41.08c-0.56,2.57-1.4,3.75-3.46,3.68c-1.88-0.07-3.11-0.97-3.09-2.96c0.02-2.03,1.45-3.07,3.19-2.83
		C63,39.14,64.06,40.34,65.17,41.08z"/>
	<path d="M45.52,28.38c-2.04,0.19-2.64-0.91-2.78-2.76c-0.17-2.25,1.26-3.11,2.91-2.82c1.08,0.19,2.57,1.57,2.73,2.59
		C48.63,27.02,47.73,28.6,45.52,28.38z"/>
	<path d="M78.06,28.41c-2.18,0.47-2.73-1.08-2.76-2.65c-0.03-1.69,0.81-3.59,2.71-3.21c1.18,0.24,2.6,1.95,2.87,3.22
		C81.2,27.25,80.15,28.72,78.06,28.41z"/>
	<path d="M19.76,40.46c-4.85,0.76-8.84-3.73-8.7-8.73c0.11-4.26,4.02-8.44,8.59-8.35c5.43,0.1,9.19,3.94,8.97,9.31
		C28.43,37.35,24.89,40.46,19.76,40.46z M19.72,35.99c2.39,0.02,3.84-1.48,3.8-3.91c-0.04-2.31-1.55-3.88-3.68-3.83
		c-2.34,0.05-3.79,1.46-3.82,3.72C16,34.51,17.33,35.98,19.72,35.99L19.72,35.99z"/>
</g>
</svg>
